# xmcd
#
# Track frame offsets:
#	150
#	4895
#	26425
#	51369
#	72452
#	97430
#	109045
#	130768
#	156826
#	175040
#	190911
#	215050
#	224181
#	247083
#	265630
#	281988
#
# Disc length: 4295 seconds
#
# Revision: 1
# Processed by: cddbd v1.5.1PL0 Copyright (c) Steve Scherf et al.
# Submitted via: audiograbber 1.83.01
#
DISCID=0110c510
DTITLE=Final Selection - Meridian
DYEAR=2005
DGENRE=Electronic
TTITLE0=Echo
TTITLE1=Coming Home
TTITLE2=Dangerous Horizon
TTITLE3=Secret Game
TTITLE4=Jupiterïs Child
TTITLE5=Calamity
TTITLE6=Lava
TTITLE7=Thieves Of My Soul
TTITLE8=Everchild
TTITLE9=Avalon
TTITLE10=Daybreak
TTITLE11=Nomads
TTITLE12=The Tempest
TTITLE13=Lost
TTITLE14=The Great White
TTITLE15=Styx
EXTD=
EXTT0=
EXTT1=
EXTT2=
EXTT3=
EXTT4=
EXTT5=
EXTT6=
EXTT7=
EXTT8=
EXTT9=
EXTT10=
EXTT11=
EXTT12=
EXTT13=
EXTT14=
EXTT15=
PLAYORDER=
